M48
;DRILL file {KiCad 5.0.2+dfsg1-1~bpo9+1} date Fri 17 Apr 2020 05:40:51 AM CDT
;FORMAT={-:-/ absolute / inch / decimal}
FMAT,2
INCH,TZ
T1C0.0350
%
G90
G05
T1
X6.4Y-3.1
X6.5Y-3.1
X7.1969Y-3.2
X7.2969Y-3.2
X4.4969Y-3.4
X4.5969Y-3.4
X4.6969Y-3.4
X5.6Y-2.5
X5.7Y-2.5
X4.9969Y-3.4
X5.0969Y-3.4
X5.1969Y-3.4
X4.8Y-3.6
X4.9Y-3.6
X6.8969Y-3.8
X6.9969Y-3.8
X7.0969Y-3.8
X5.6Y-1.8
X5.7Y-1.8
X7.1969Y-2.5
X7.2969Y-2.5
X7.1969Y-1.7
X7.2969Y-1.7
X6.5969Y-2.8
X6.6969Y-2.8
X6.7969Y-2.8
X6.8969Y-2.5
X6.9969Y-2.5
X7.0969Y-2.5
X4.4969Y-3.
X4.5969Y-3.
X4.6969Y-3.
X6.5969Y-2.
X6.6969Y-2.
X6.7969Y-2.
X4.9969Y-4.5
X5.0969Y-4.5
X5.1969Y-4.5
X4.1969Y-4.4
X4.2969Y-4.4
X4.3969Y-4.4
X4.1969Y-2.6
X4.2969Y-2.6
X4.3969Y-2.6
X7.1969Y-2.4
X7.2969Y-2.4
X6.4Y-2.8
X6.5Y-2.8
X5.7969Y-4.1
X5.8969Y-4.1
X5.9969Y-4.1
X6.4Y-3.
X6.5Y-3.
X5.7969Y-2.7
X5.8969Y-2.7
X5.9969Y-2.7
X7.1969Y-3.
X7.2969Y-3.
X6.0969Y-1.9
X6.1969Y-1.9
X6.2969Y-1.9
X7.3969Y-2.8
X7.4969Y-2.8
X7.5969Y-2.8
X4.1969Y-2.8
X4.2969Y-2.8
X4.3969Y-2.8
X6.4Y-3.7
X6.5Y-3.7
X5.7969Y-3.8
X5.8969Y-3.8
X5.9969Y-3.8
X4.1969Y-3.7
X4.2969Y-3.7
X4.3969Y-3.7
X4.4969Y-3.2
X4.5969Y-3.2
X4.6969Y-3.2
X6.4Y-4.4
X6.5Y-4.4
X5.6Y-3.8
X5.7Y-3.8
X6.0969Y-3.1
X6.1969Y-3.1
X6.2969Y-3.1
X4.4969Y-1.9
X4.5969Y-1.9
X4.6969Y-1.9
X5.7969Y-2.
X5.8969Y-2.
X5.9969Y-2.
X5.6Y-3.5
X5.7Y-3.5
X5.15Y-1.35
X4.8Y-3.2
X4.9Y-3.2
X6.5969Y-2.3
X6.6969Y-2.3
X6.7969Y-2.3
X4.4969Y-2.4
X4.5969Y-2.4
X4.6969Y-2.4
X4.4969Y-1.5
X4.5969Y-1.5
X4.6969Y-1.5
X4.1969Y-3.8
X4.2969Y-3.8
X4.3969Y-3.8
X4.8Y-4.5
X4.9Y-4.5
X4.1969Y-2.1
X4.2969Y-2.1
X4.3969Y-2.1
X7.3969Y-4.1
X7.4969Y-4.1
X7.5969Y-4.1
X4.65Y-1.25
X6.7Y-1.25
X6.5969Y-3.2
X6.6969Y-3.2
X6.7969Y-3.2
X5.6Y-3.9
X5.7Y-3.9
X7.3Y-1.25
X7.3969Y-1.7
X7.4969Y-1.7
X7.5969Y-1.7
X6.8969Y-3.7
X6.9969Y-3.7
X7.0969Y-3.7
X6.0969Y-3.2
X6.1969Y-3.2
X6.2969Y-3.2
X5.6Y-2.9
X5.7Y-2.9
X4.1969Y-3.4
X4.2969Y-3.4
X4.3969Y-3.4
X5.2969Y-2.6
X5.3969Y-2.6
X5.4969Y-2.6
X6.0969Y-2.1
X6.1969Y-2.1
X6.2969Y-2.1
X6.9Y-1.35
X6.8969Y-3.6
X6.9969Y-3.6
X7.0969Y-3.6
X4.4969Y-3.7
X4.5969Y-3.7
X4.6969Y-3.7
X4.7969Y-1.5
X4.8969Y-1.5
X4.1969Y-1.9
X4.2969Y-1.9
X4.3969Y-1.9
X5.6Y-1.6
X5.7Y-1.6
X7.1969Y-2.6
X7.2969Y-2.6
X4.1969Y-3.
X4.2969Y-3.
X4.3969Y-3.
X4.8Y-2.6
X4.9Y-2.6
X4.4Y-1.35
X7.3969Y-3.2
X7.4969Y-3.2
X7.5969Y-3.2
X6.0969Y-2.
X6.1969Y-2.
X6.2969Y-2.
X5.7969Y-1.6
X5.8969Y-1.6
X5.9969Y-1.6
X7.1969Y-4.4
X7.2969Y-4.4
X6.0969Y-3.8
X6.1969Y-3.8
X6.2969Y-3.8
X4.9969Y-3.7
X5.0969Y-3.7
X5.1969Y-3.7
X4.1969Y-3.1
X4.2969Y-3.1
X4.3969Y-3.1
X7.1937Y-1.5
X7.2937Y-1.5
X5.2969Y-1.7
X5.3969Y-1.7
X5.4969Y-1.7
X5.2969Y-2.9
X5.3969Y-2.9
X5.4969Y-2.9
X5.5969Y-1.5
X5.6969Y-1.5
X4.8Y-3.1
X4.9Y-3.1
X6.0969Y-4.3
X6.1969Y-4.3
X6.2969Y-4.3
X7.15Y-1.25
X4.1969Y-3.6
X4.2969Y-3.6
X4.3969Y-3.6
X5.25Y-1.25
X6.8969Y-2.4
X6.9969Y-2.4
X7.0969Y-2.4
X7.1969Y-2.7
X7.2969Y-2.7
X4.8Y-1.7
X4.9Y-1.7
X5.6Y-2.8
X5.7Y-2.8
X6.4Y-4.2
X6.5Y-4.2
X7.1969Y-2.8
X7.2969Y-2.8
X5.7969Y-3.6
X5.8969Y-3.6
X5.9969Y-3.6
X4.8Y-1.9
X4.9Y-1.9
X4.4969Y-1.8
X4.5969Y-1.8
X4.6969Y-1.8
X4.1969Y-4.
X4.2969Y-4.
X4.3969Y-4.
X4.4969Y-3.9
X4.5969Y-3.9
X4.6969Y-3.9
X4.8Y-4.2
X4.9Y-4.2
X7.3969Y-3.5
X7.4969Y-3.5
X7.5969Y-3.5
X5.6Y-3.6
X5.7Y-3.6
X6.5969Y-1.7
X6.6969Y-1.7
X6.7969Y-1.7
X7.3969Y-1.9
X7.4969Y-1.9
X7.5969Y-1.9
X6.8969Y-2.9
X6.9969Y-2.9
X7.0969Y-2.9
X7.1969Y-2.9
X7.2969Y-2.9
X4.9969Y-3.
X5.0969Y-3.
X5.1969Y-3.
X5.1Y-1.25
X6.5969Y-2.1
X6.6969Y-2.1
X6.7969Y-2.1
X5.6Y-4.2
X5.7Y-4.2
X4.8Y-1.6
X4.9Y-1.6
X6.5969Y-2.6
X6.6969Y-2.6
X6.7969Y-2.6
X6.4Y-2.2
X6.5Y-2.2
X5.2969Y-2.7
X5.3969Y-2.7
X5.4969Y-2.7
X4.1969Y-4.3
X4.2969Y-4.3
X4.3969Y-4.3
X6.8969Y-4.4
X6.9969Y-4.4
X7.0969Y-4.4
X4.8Y-1.8
X4.9Y-1.8
X4.1969Y-2.3
X4.2969Y-2.3
X4.3969Y-2.3
X6.5969Y-2.4
X6.6969Y-2.4
X6.7969Y-2.4
X6.8969Y-3.5
X6.9969Y-3.5
X7.0969Y-3.5
X6.0969Y-3.9
X6.1969Y-3.9
X6.2969Y-3.9
X5.6Y-2.
X5.7Y-2.
X4.25Y-1.35
X5.6Y-1.25
X5.7969Y-1.8
X5.8969Y-1.8
X5.9969Y-1.8
X6.5969Y-3.8
X6.6969Y-3.8
X6.7969Y-3.8
X7.3969Y-3.1
X7.4969Y-3.1
X7.5969Y-3.1
X6.6Y-1.35
X6.8969Y-3.
X6.9969Y-3.
X7.0969Y-3.
X5.2969Y-1.6
X5.3969Y-1.6
X5.4969Y-1.6
X5.2969Y-4.
X5.3969Y-4.
X5.4969Y-4.
X7.3969Y-3.7
X7.4969Y-3.7
X7.5969Y-3.7
X5.2969Y-2.4
X5.3969Y-2.4
X5.4969Y-2.4
X6.25Y-1.35
X5.6Y-4.4
X5.7Y-4.4
X6.4Y-4.
X6.5Y-4.
X4.4969Y-4.
X4.5969Y-4.
X4.6969Y-4.
X6.5969Y-3.7
X6.6969Y-3.7
X6.7969Y-3.7
X6.8969Y-1.6
X6.9969Y-1.6
X7.0969Y-1.6
X4.4969Y-1.7
X4.5969Y-1.7
X4.6969Y-1.7
X6.4Y-1.8
X6.5Y-1.8
X6.5969Y-1.8
X6.6969Y-1.8
X6.7969Y-1.8
X4.9969Y-2.7
X5.0969Y-2.7
X5.1969Y-2.7
X5.2969Y-3.7
X5.3969Y-3.7
X5.4969Y-3.7
X4.4969Y-1.6
X4.5969Y-1.6
X4.6969Y-1.6
X7.3969Y-2.4
X7.4969Y-2.4
X7.5969Y-2.4
X6.0969Y-1.7
X6.1969Y-1.7
X6.2969Y-1.7
X4.9969Y-3.8
X5.0969Y-3.8
X5.1969Y-3.8
X6.5969Y-2.7
X6.6969Y-2.7
X6.7969Y-2.7
X6.2Y-1.25
X5.2969Y-3.3
X5.3969Y-3.3
X5.4969Y-3.3
X7.3969Y-1.6
X7.4969Y-1.6
X7.5969Y-1.6
X4.9969Y-4.2
X5.0969Y-4.2
X5.1969Y-4.2
X4.1969Y-4.2
X4.2969Y-4.2
X4.3969Y-4.2
X5.6Y-3.2
X5.7Y-3.2
X5.9Y-1.25
X6.8969Y-2.1
X6.9969Y-2.1
X7.0969Y-2.1
X6.4Y-2.3
X6.5Y-2.3
X6.8969Y-2.2
X6.9969Y-2.2
X7.0969Y-2.2
X4.9969Y-1.5
X5.0969Y-1.5
X5.1969Y-1.5
X7.3969Y-3.3
X7.4969Y-3.3
X7.5969Y-3.3
X4.4969Y-3.6
X4.5969Y-3.6
X4.6969Y-3.6
X6.0969Y-2.3
X6.1969Y-2.3
X6.2969Y-2.3
X6.0969Y-3.5
X6.1969Y-3.5
X6.2969Y-3.5
X7.5Y-1.25
X6.4Y-3.3
X6.5Y-3.3
X7.3969Y-2.1
X7.4969Y-2.1
X7.5969Y-2.1
X6.05Y-1.25
X6.8969Y-2.
X6.9969Y-2.
X7.0969Y-2.
X4.8Y-3.3
X4.9Y-3.3
X6.8969Y-2.3
X6.9969Y-2.3
X7.0969Y-2.3
X4.1Y-1.4
X4.1Y-1.5
X5.6Y-2.3
X5.7Y-2.3
X5.2969Y-3.5
X5.3969Y-3.5
X5.4969Y-3.5
X7.1969Y-2.3
X7.2969Y-2.3
X5.7969Y-1.7
X5.8969Y-1.7
X5.9969Y-1.7
X5.4Y-1.25
X7.1969Y-1.6
X7.2969Y-1.6
X6.0969Y-2.5
X6.1969Y-2.5
X6.2969Y-2.5
X5.7969Y-2.6
X5.8969Y-2.6
X5.9969Y-2.6
X6.5969Y-4.5
X6.6969Y-4.5
X6.7969Y-4.5
X5.7969Y-1.9
X5.8969Y-1.9
X5.9969Y-1.9
X5.2969Y-2.1
X5.3969Y-2.1
X5.4969Y-2.1
X6.1Y-1.35
X6.4Y-3.4
X6.5Y-3.4
X5.7969Y-4.4
X5.8969Y-4.4
X5.9969Y-4.4
X7.3969Y-4.
X7.4969Y-4.
X7.5969Y-4.
X7.1969Y-4.
X7.2969Y-4.
X7.3969Y-1.8
X7.4969Y-1.8
X7.5969Y-1.8
X7.1969Y-3.7
X7.2969Y-3.7
X6.0969Y-1.8
X6.1969Y-1.8
X6.2969Y-1.8
X5.2969Y-3.1
X5.3969Y-3.1
X5.4969Y-3.1
X5.6Y-2.4
X5.7Y-2.4
X4.9969Y-4.1
X5.0969Y-4.1
X5.1969Y-4.1
X4.8Y-3.4
X4.9Y-3.4
X6.5969Y-3.3
X6.6969Y-3.3
X6.7969Y-3.3
X4.9969Y-1.6
X5.0969Y-1.6
X5.1969Y-1.6
X6.8969Y-4.
X6.9969Y-4.
X7.0969Y-4.
X6.8969Y-1.8
X6.9969Y-1.8
X7.0969Y-1.8
X7.3969Y-1.5
X7.4969Y-1.5
X7.5969Y-1.5
X4.4969Y-3.3
X4.5969Y-3.3
X4.6969Y-3.3
X4.8Y-3.8
X4.9Y-3.8
X4.55Y-1.35
X5.7969Y-1.5
X5.8969Y-1.5
X5.9969Y-1.5
X4.8Y-4.
X4.9Y-4.
X4.8Y-2.1
X4.9Y-2.1
X4.9969Y-2.5
X5.0969Y-2.5
X5.1969Y-2.5
X5.2969Y-3.8
X5.3969Y-3.8
X5.4969Y-3.8
X5.6Y-3.4
X5.7Y-3.4
X7.1969Y-4.2
X7.2969Y-4.2
X5.2969Y-3.4
X5.3969Y-3.4
X5.4969Y-3.4
X6.4Y-4.3
X6.5Y-4.3
X7.2Y-1.35
X5.7969Y-3.9
X5.8969Y-3.9
X5.9969Y-3.9
X4.1969Y-1.8
X4.2969Y-1.8
X4.3969Y-1.8
X4.9969Y-2.
X5.0969Y-2.
X5.1969Y-2.
X4.2Y-1.25
X5.6Y-1.9
X5.7Y-1.9
X7.1969Y-3.3
X7.2969Y-3.3
X4.8Y-3.9
X4.9Y-3.9
X6.8969Y-4.1
X6.9969Y-4.1
X7.0969Y-4.1
X4.4969Y-4.1
X4.5969Y-4.1
X4.6969Y-4.1
X5.2969Y-3.
X5.3969Y-3.
X5.4969Y-3.
X6.5969Y-1.9
X6.6969Y-1.9
X6.7969Y-1.9
X4.1969Y-3.9
X4.2969Y-3.9
X4.3969Y-3.9
X4.1969Y-2.4
X4.2969Y-2.4
X4.3969Y-2.4
X5.2969Y-3.9
X5.3969Y-3.9
X5.4969Y-3.9
X7.1969Y-2.1
X7.2969Y-2.1
X4.9969Y-1.8
X5.0969Y-1.8
X5.1969Y-1.8
X5.2969Y-4.5
X5.3969Y-4.5
X5.4969Y-4.5
X7.3969Y-2.3
X7.4969Y-2.3
X7.5969Y-2.3
X4.8Y-2.
X4.9Y-2.
X7.1969Y-3.9
X7.2969Y-3.9
X5.7969Y-2.1
X5.8969Y-2.1
X5.9969Y-2.1
X4.4969Y-2.2
X4.5969Y-2.2
X4.6969Y-2.2
X5.2969Y-2.5
X5.3969Y-2.5
X5.4969Y-2.5
X7.7Y-1.4
X7.7Y-1.5
X4.8Y-1.25
X6.5969Y-3.
X6.6969Y-3.
X6.7969Y-3.
X5.6Y-4.
X5.7Y-4.
X6.5969Y-1.6
X6.6969Y-1.6
X6.7969Y-1.6
X7.3969Y-3.
X7.4969Y-3.
X7.5969Y-3.
X6.8969Y-3.9
X6.9969Y-3.9
X7.0969Y-3.9
X5.6Y-4.5
X5.7Y-4.5
X7.1969Y-4.1
X7.2969Y-4.1
X5.2969Y-4.3
X5.3969Y-4.3
X5.4969Y-4.3
X6.4Y-2.4
X6.5Y-2.4
X6.4Y-3.9
X6.5Y-3.9
X6.5969Y-3.6
X6.6969Y-3.6
X6.7969Y-3.6
X5.65Y-1.35
X7.Y-1.25
X6.5969Y-2.5
X6.6969Y-2.5
X6.7969Y-2.5
X5.2969Y-4.4
X5.3969Y-4.4
X5.4969Y-4.4
X7.3969Y-2.5
X7.4969Y-2.5
X7.5969Y-2.5
X4.8Y-3.
X4.9Y-3.
X4.4969Y-2.
X4.5969Y-2.
X4.6969Y-2.
X6.0969Y-3.
X6.1969Y-3.
X6.2969Y-3.
X5.7969Y-3.1
X5.8969Y-3.1
X5.9969Y-3.1
X6.8969Y-1.5
X6.9969Y-1.5
X7.0969Y-1.5
X7.3969Y-4.5
X7.4969Y-4.5
X7.5969Y-4.5
X7.3969Y-4.2
X7.4969Y-4.2
X7.5969Y-4.2
X6.0969Y-2.6
X6.1969Y-2.6
X6.2969Y-2.6
X4.4969Y-4.2
X4.5969Y-4.2
X4.6969Y-4.2
X4.1969Y-4.1
X4.2969Y-4.1
X4.3969Y-4.1
X6.0969Y-2.2
X6.1969Y-2.2
X6.2969Y-2.2
X4.1969Y-1.6
X4.2969Y-1.6
X4.3969Y-1.6
X6.0969Y-3.7
X6.1969Y-3.7
X6.2969Y-3.7
X6.4Y-4.5
X6.5Y-4.5
X4.7Y-1.35
X7.3969Y-4.4
X7.4969Y-4.4
X7.5969Y-4.4
X6.8969Y-3.3
X6.9969Y-3.3
X7.0969Y-3.3
X6.5969Y-4.3
X6.6969Y-4.3
X6.7969Y-4.3
X6.5969Y-2.9
X6.6969Y-2.9
X6.7969Y-2.9
X4.8Y-3.7
X4.9Y-3.7
X5.7969Y-4.5
X5.8969Y-4.5
X5.9969Y-4.5
X7.1969Y-2.2
X7.2969Y-2.2
X5.7969Y-3.7
X5.8969Y-3.7
X5.9969Y-3.7
X6.4Y-2.5
X6.5Y-2.5
X4.9969Y-3.2
X5.0969Y-3.2
X5.1969Y-3.2
X6.0969Y-4.2
X6.1969Y-4.2
X6.2969Y-4.2
X4.8Y-4.4
X4.9Y-4.4
X6.5969Y-3.4
X6.6969Y-3.4
X6.7969Y-3.4
X4.1969Y-1.5
X4.2969Y-1.5
X4.3969Y-1.5
X5.7969Y-3.3
X5.8969Y-3.3
X5.9969Y-3.3
X7.3969Y-2.2
X7.4969Y-2.2
X7.5969Y-2.2
X5.7969Y-4.
X5.8969Y-4.
X5.9969Y-4.
X4.35Y-1.25
X4.9969Y-2.1
X5.0969Y-2.1
X5.1969Y-2.1
X4.1969Y-3.2
X4.2969Y-3.2
X4.3969Y-3.2
X6.4Y-1.9
X6.5Y-1.9
X5.7969Y-4.3
X5.8969Y-4.3
X5.9969Y-4.3
X6.5969Y-3.5
X6.6969Y-3.5
X6.7969Y-3.5
X6.4Y-3.6
X6.5Y-3.6
X4.8Y-2.9
X4.9Y-2.9
X6.85Y-1.25
X4.5Y-1.25
X4.4969Y-2.5
X4.5969Y-2.5
X4.6969Y-2.5
X5.2969Y-1.9
X5.3969Y-1.9
X5.4969Y-1.9
X6.0969Y-2.9
X6.1969Y-2.9
X6.2969Y-2.9
X4.4969Y-4.4
X4.5969Y-4.4
X4.6969Y-4.4
X7.1969Y-3.8
X7.2969Y-3.8
X4.9969Y-2.9
X5.0969Y-2.9
X5.1969Y-2.9
X7.1969Y-4.5
X7.2969Y-4.5
X6.5969Y-1.5
X6.6969Y-1.5
X6.7969Y-1.5
X6.0969Y-2.7
X6.1969Y-2.7
X6.2969Y-2.7
X4.4969Y-2.9
X4.5969Y-2.9
X4.6969Y-2.9
X4.4969Y-2.1
X4.5969Y-2.1
X4.6969Y-2.1
X6.4Y-2.6
X6.5Y-2.6
X7.1969Y-2.
X7.2969Y-2.
X7.1969Y-3.1
X7.2969Y-3.1
X6.5969Y-4.4
X6.6969Y-4.4
X6.7969Y-4.4
X5.6Y-3.3
X5.7Y-3.3
X6.4Y-2.1
X6.5Y-2.1
X4.1969Y-2.7
X4.2969Y-2.7
X4.3969Y-2.7
X7.3969Y-2.
X7.4969Y-2.
X7.5969Y-2.
X5.7969Y-4.2
X5.8969Y-4.2
X5.9969Y-4.2
X6.8969Y-3.2
X6.9969Y-3.2
X7.0969Y-3.2
X4.9969Y-2.6
X5.0969Y-2.6
X5.1969Y-2.6
X4.9969Y-3.3
X5.0969Y-3.3
X5.1969Y-3.3
X6.55Y-1.25
X6.4Y-2.9
X6.5Y-2.9
X5.7969Y-2.8
X5.8969Y-2.8
X5.9969Y-2.8
X4.9969Y-3.1
X5.0969Y-3.1
X5.1969Y-3.1
X7.3969Y-2.6
X7.4969Y-2.6
X7.5969Y-2.6
X6.35Y-1.25
X5.6Y-2.7
X5.7Y-2.7
X6.8969Y-2.6
X6.9969Y-2.6
X7.0969Y-2.6
X6.4Y-1.35
X7.05Y-1.35
X6.5969Y-4.2
X6.6969Y-4.2
X6.7969Y-4.2
X5.3Y-1.35
X7.3969Y-3.9
X7.4969Y-3.9
X7.5969Y-3.9
X6.8969Y-4.2
X6.9969Y-4.2
X7.0969Y-4.2
X6.5969Y-2.2
X6.6969Y-2.2
X6.7969Y-2.2
X6.3969Y-1.5
X6.4969Y-1.5
X5.6Y-3.7
X5.7Y-3.7
X6.75Y-1.35
X5.6Y-3.1
X5.7Y-3.1
X4.1969Y-2.5
X4.2969Y-2.5
X4.3969Y-2.5
X5.7969Y-3.
X5.8969Y-3.
X5.9969Y-3.
X7.3969Y-3.6
X7.4969Y-3.6
X7.5969Y-3.6
X6.8969Y-2.8
X6.9969Y-2.8
X7.0969Y-2.8
X4.9969Y-2.4
X5.0969Y-2.4
X5.1969Y-2.4
X4.8Y-2.8
X4.9Y-2.8
X7.1969Y-1.8
X7.2969Y-1.8
X6.8969Y-2.7
X6.9969Y-2.7
X7.0969Y-2.7
X6.4Y-2.7
X6.5Y-2.7
X4.4969Y-3.8
X4.5969Y-3.8
X4.6969Y-3.8
X4.8Y-4.1
X4.9Y-4.1
X6.0969Y-4.1
X6.1969Y-4.1
X6.2969Y-4.1
X7.3969Y-3.8
X7.4969Y-3.8
X7.5969Y-3.8
X5.2969Y-3.2
X5.3969Y-3.2
X5.4969Y-3.2
X5.45Y-1.35
X5.6Y-2.6
X5.7Y-2.6
X4.9969Y-2.8
X5.0969Y-2.8
X5.1969Y-2.8
X6.4Y-1.6
X6.5Y-1.6
X6.0969Y-4.
X6.1969Y-4.
X6.2969Y-4.
X6.0969Y-4.5
X6.1969Y-4.5
X6.2969Y-4.5
X4.8Y-2.2
X4.9Y-2.2
X4.85Y-1.35
X4.95Y-1.25
X6.0969Y-1.5
X6.1969Y-1.5
X6.2969Y-1.5
X6.8969Y-1.7
X6.9969Y-1.7
X7.0969Y-1.7
X6.0969Y-4.4
X6.1969Y-4.4
X6.2969Y-4.4
X6.8969Y-3.1
X6.9969Y-3.1
X7.0969Y-3.1
X5.6Y-4.1
X5.7Y-4.1
X5.2969Y-2.8
X5.3969Y-2.8
X5.4969Y-2.8
X7.1969Y-3.4
X7.2969Y-3.4
X4.4969Y-2.3
X4.5969Y-2.3
X4.6969Y-2.3
X6.8969Y-4.3
X6.9969Y-4.3
X7.0969Y-4.3
X6.0969Y-3.4
X6.1969Y-3.4
X6.2969Y-3.4
X6.5969Y-4.1
X6.6969Y-4.1
X6.7969Y-4.1
X4.9969Y-1.7
X5.0969Y-1.7
X5.1969Y-1.7
X7.3969Y-3.4
X7.4969Y-3.4
X7.5969Y-3.4
X5.2969Y-2.2
X5.3969Y-2.2
X5.4969Y-2.2
X6.5969Y-3.9
X6.6969Y-3.9
X6.7969Y-3.9
X7.3969Y-2.7
X7.4969Y-2.7
X7.5969Y-2.7
X4.8Y-4.3
X4.9Y-4.3
X6.5969Y-4.
X6.6969Y-4.
X6.7969Y-4.
X4.1969Y-2.9
X4.2969Y-2.9
X4.3969Y-2.9
X4.4969Y-4.3
X4.5969Y-4.3
X4.6969Y-4.3
X5.7969Y-3.4
X5.8969Y-3.4
X5.9969Y-3.4
X6.4Y-3.2
X6.5Y-3.2
X6.5969Y-3.1
X6.6969Y-3.1
X6.7969Y-3.1
X5.2969Y-1.8
X5.3969Y-1.8
X5.4969Y-1.8
X4.8Y-2.3
X4.9Y-2.3
X6.0969Y-1.6
X6.1969Y-1.6
X6.2969Y-1.6
X4.1969Y-3.3
X4.2969Y-3.3
X4.3969Y-3.3
X6.0969Y-2.8
X6.1969Y-2.8
X6.2969Y-2.8
X4.9969Y-3.5
X5.0969Y-3.5
X5.1969Y-3.5
X5.7969Y-2.5
X5.8969Y-2.5
X5.9969Y-2.5
X4.9969Y-3.6
X5.0969Y-3.6
X5.1969Y-3.6
X6.4Y-1.7
X6.5Y-1.7
X5.2969Y-4.1
X5.3969Y-4.1
X5.4969Y-4.1
X6.0969Y-3.3
X6.1969Y-3.3
X6.2969Y-3.3
X4.4969Y-3.5
X4.5969Y-3.5
X4.6969Y-3.5
X4.9969Y-2.2
X5.0969Y-2.2
X5.1969Y-2.2
X5.75Y-1.25
X4.8Y-2.5
X4.9Y-2.5
X5.8Y-1.35
X4.4969Y-2.6
X4.5969Y-2.6
X4.6969Y-2.6
X4.9969Y-3.9
X5.0969Y-3.9
X5.1969Y-3.9
X7.3969Y-2.9
X7.4969Y-2.9
X7.5969Y-2.9
X5.6Y-3.
X5.7Y-3.
X7.35Y-1.35
X6.8969Y-3.4
X6.9969Y-3.4
X7.0969Y-3.4
X5.6Y-1.7
X5.7Y-1.7
X5.7969Y-3.5
X5.8969Y-3.5
X5.9969Y-3.5
X5.7969Y-2.2
X5.8969Y-2.2
X5.9969Y-2.2
X5.6Y-2.1
X5.7Y-2.1
X5.7969Y-3.2
X5.8969Y-3.2
X5.9969Y-3.2
X4.1969Y-2.
X4.2969Y-2.
X4.3969Y-2.
X4.9969Y-4.
X5.0969Y-4.
X5.1969Y-4.
X5.2969Y-4.2
X5.3969Y-4.2
X5.4969Y-4.2
X4.9969Y-4.4
X5.0969Y-4.4
X5.1969Y-4.4
X6.4Y-3.5
X6.5Y-3.5
X5.7969Y-2.9
X5.8969Y-2.9
X5.9969Y-2.9
X6.8969Y-4.5
X6.9969Y-4.5
X7.0969Y-4.5
X5.2969Y-1.5
X5.3969Y-1.5
X5.4969Y-1.5
X6.0969Y-2.4
X6.1969Y-2.4
X6.2969Y-2.4
X6.4Y-4.1
X6.5Y-4.1
X5.2969Y-2.
X5.3969Y-2.
X5.4969Y-2.
X5.2969Y-2.3
X5.3969Y-2.3
X5.4969Y-2.3
X7.1969Y-1.9
X7.2969Y-1.9
X5.7969Y-2.3
X5.8969Y-2.3
X5.9969Y-2.3
X4.4969Y-2.7
X4.5969Y-2.7
X4.6969Y-2.7
X6.4Y-2.
X6.5Y-2.
X6.8969Y-1.9
X6.9969Y-1.9
X7.0969Y-1.9
X4.9969Y-4.3
X5.0969Y-4.3
X5.1969Y-4.3
X4.4969Y-2.8
X4.5969Y-2.8
X4.6969Y-2.8
X4.4969Y-3.1
X4.5969Y-3.1
X4.6969Y-3.1
X5.6Y-2.2
X5.7Y-2.2
X7.1969Y-4.3
X7.2969Y-4.3
X4.8Y-2.7
X4.9Y-2.7
X4.4969Y-4.5
X4.5969Y-4.5
X4.6969Y-4.5
X4.1969Y-2.2
X4.2969Y-2.2
X4.3969Y-2.2
X4.1969Y-4.5
X4.2969Y-4.5
X4.3969Y-4.5
X5.95Y-1.35
X4.8Y-3.5
X4.9Y-3.5
X7.1969Y-3.5
X7.2969Y-3.5
X4.9969Y-1.9
X5.0969Y-1.9
X5.1969Y-1.9
X5.6Y-4.3
X5.7Y-4.3
X7.1969Y-3.6
X7.2969Y-3.6
X5.Y-1.35
X4.1969Y-1.7
X4.2969Y-1.7
X4.3969Y-1.7
X7.3969Y-4.3
X7.4969Y-4.3
X7.5969Y-4.3
X7.55Y-1.35
X5.7969Y-2.4
X5.8969Y-2.4
X5.9969Y-2.4
X4.8Y-2.4
X4.9Y-2.4
X4.9969Y-2.3
X5.0969Y-2.3
X5.1969Y-2.3
X6.0969Y-3.6
X6.1969Y-3.6
X6.2969Y-3.6
X4.1969Y-3.5
X4.2969Y-3.5
X4.3969Y-3.5
X6.4Y-3.8
X6.5Y-3.8
X5.2969Y-3.6
X5.3969Y-3.6
X5.4969Y-3.6
T0
M30
