G04 #@! TF.GenerationSoftware,KiCad,Pcbnew,5.0.2+dfsg1-1~bpo9+1*
G04 #@! TF.CreationDate,2020-04-17T05:40:57-05:00*
G04 #@! TF.ProjectId,VICProto,56494350-726f-4746-9f2e-6b696361645f,rev?*
G04 #@! TF.SameCoordinates,Original*
G04 #@! TF.FileFunction,Legend,Bot*
G04 #@! TF.FilePolarity,Positive*
%FSLAX46Y46*%
G04 Gerber Fmt 4.6, Leading zero omitted, Abs format (unit mm)*
G04 Created by KiCad (PCBNEW 5.0.2+dfsg1-1~bpo9+1) date Fri 17 Apr 2020 05:40:57 AM CDT*
%MOMM*%
%LPD*%
G01*
G04 APERTURE LIST*
%ADD10C,0.300000*%
%ADD11C,0.200000*%
%ADD12C,0.150000*%
G04 APERTURE END LIST*
D10*
X104857142Y-32750000D02*
X104142857Y-32750000D01*
X105000000Y-33178571D02*
X104500000Y-31678571D01*
X104000000Y-33178571D01*
X106071428Y-36178571D02*
X106928571Y-36178571D01*
X106500000Y-36178571D02*
X106500000Y-34678571D01*
X106642857Y-34892857D01*
X106785714Y-35035714D01*
X106928571Y-35107142D01*
X193000000Y-31178571D02*
X192000000Y-31178571D01*
X193000000Y-32678571D01*
X192000000Y-32678571D01*
X190372857Y-34321428D02*
X190301428Y-34250000D01*
X190158571Y-34178571D01*
X189801428Y-34178571D01*
X189658571Y-34250000D01*
X189587142Y-34321428D01*
X189515714Y-34464285D01*
X189515714Y-34607142D01*
X189587142Y-34821428D01*
X190444285Y-35678571D01*
X189515714Y-35678571D01*
X188944285Y-34321428D02*
X188872857Y-34250000D01*
X188730000Y-34178571D01*
X188372857Y-34178571D01*
X188230000Y-34250000D01*
X188158571Y-34321428D01*
X188087142Y-34464285D01*
X188087142Y-34607142D01*
X188158571Y-34821428D01*
X189015714Y-35678571D01*
X188087142Y-35678571D01*
D11*
X186690000Y-115570000D02*
X186690000Y-36830000D01*
X181610000Y-36830000D02*
X181610000Y-115570000D01*
X173990000Y-115570000D02*
X173990000Y-36830000D01*
X166370000Y-36830000D02*
X166370000Y-115570000D01*
X161290000Y-115570000D02*
X161290000Y-36830000D01*
X153670000Y-36830000D02*
X153670000Y-115570000D01*
X146050000Y-115570000D02*
X146050000Y-36830000D01*
X140970000Y-36830000D02*
X140970000Y-115570000D01*
X133350000Y-115570000D02*
X133350000Y-36830000D01*
X125730000Y-36830000D02*
X125730000Y-115570000D01*
X120650000Y-115570000D02*
X120650000Y-36830000D01*
X113030000Y-36830000D02*
X113030000Y-115570000D01*
X105410000Y-115570000D02*
X105410000Y-36830000D01*
X194310000Y-115570000D02*
X105410000Y-115570000D01*
X194310000Y-36830000D02*
X194310000Y-115570000D01*
X105410000Y-36830000D02*
X194310000Y-36830000D01*
D12*
G04 #@! TO.C,CONN\002A\002A*
X104419400Y-29210000D02*
X104419400Y-19050000D01*
X193573400Y-19050000D02*
X193573400Y-29210000D01*
G04 #@! TD*
M02*
